<mxfile host="app.diagrams.net" modified="2022-12-12T21:17:51.681Z" agent="5.0 (Windows NT 10.0; Win64; x64) AppleWebKit/537.36 (KHTML, like Gecko) Chrome/108.0.0.0 Safari/537.36" version="20.6.2" etag="Dec0Wq8zogB2wtyNRiZ5" type="github">
  <diagram id="JQhUr6hzJ1KSimciIx51" name="Page-1">
    <mxGraphModel dx="2601" dy="1479" grid="1" gridSize="10" guides="1" tooltips="1" connect="1" arrows="1" fold="1" page="1" pageScale="1" pageWidth="413" pageHeight="291" math="0" shadow="0">
      <root>
        <mxCell id="0" />
        <mxCell id="1" parent="0" />
        <mxCell id="qII1i5PBghsoT79Tx9uA-33" value="" style="rounded=0;orthogonalLoop=1;jettySize=auto;html=1;strokeWidth=3;endArrow=ERmany;endFill=0;endSize=24;" edge="1" parent="1" source="qII1i5PBghsoT79Tx9uA-32" target="qII1i5PBghsoT79Tx9uA-31">
          <mxGeometry relative="1" as="geometry" />
        </mxCell>
        <mxCell id="qII1i5PBghsoT79Tx9uA-31" value="&lt;b&gt;&lt;font style=&quot;font-size: 21px;&quot;&gt;Fruit Buisness&lt;/font&gt;&lt;/b&gt;" style="rounded=0;whiteSpace=wrap;html=1;strokeWidth=4;fillColor=#fff2cc;strokeColor=#d6b656;" vertex="1" parent="1">
          <mxGeometry x="670" y="435" width="180" height="60" as="geometry" />
        </mxCell>
        <mxCell id="qII1i5PBghsoT79Tx9uA-35" value="" style="edgeStyle=orthogonalEdgeStyle;rounded=0;orthogonalLoop=1;jettySize=auto;html=1;endArrow=ERmany;endFill=0;strokeWidth=3;endSize=24;" edge="1" parent="1" source="qII1i5PBghsoT79Tx9uA-32" target="qII1i5PBghsoT79Tx9uA-34">
          <mxGeometry relative="1" as="geometry" />
        </mxCell>
        <mxCell id="qII1i5PBghsoT79Tx9uA-32" value="&lt;font style=&quot;font-size: 20px;&quot;&gt;Has&lt;/font&gt;" style="rhombus;whiteSpace=wrap;html=1;rounded=0;strokeWidth=4;fillColor=#f8cecc;strokeColor=#b85450;" vertex="1" parent="1">
          <mxGeometry x="990" y="425" width="80" height="80" as="geometry" />
        </mxCell>
        <mxCell id="qII1i5PBghsoT79Tx9uA-41" value="" style="edgeStyle=orthogonalEdgeStyle;rounded=0;orthogonalLoop=1;jettySize=auto;html=1;fontSize=24;fontColor=#66FF66;endArrow=none;endFill=0;" edge="1" parent="1" source="qII1i5PBghsoT79Tx9uA-34" target="qII1i5PBghsoT79Tx9uA-40">
          <mxGeometry relative="1" as="geometry" />
        </mxCell>
        <mxCell id="qII1i5PBghsoT79Tx9uA-85" value="" style="edgeStyle=orthogonalEdgeStyle;rounded=0;orthogonalLoop=1;jettySize=auto;html=1;fontSize=20;fontColor=#66FF66;endArrow=none;endFill=0;strokeWidth=3;" edge="1" parent="1" source="qII1i5PBghsoT79Tx9uA-34" target="qII1i5PBghsoT79Tx9uA-84">
          <mxGeometry relative="1" as="geometry" />
        </mxCell>
        <mxCell id="qII1i5PBghsoT79Tx9uA-87" value="" style="edgeStyle=orthogonalEdgeStyle;rounded=0;orthogonalLoop=1;jettySize=auto;html=1;fontSize=20;fontColor=#66FF66;endArrow=none;endFill=0;strokeWidth=3;" edge="1" parent="1" source="qII1i5PBghsoT79Tx9uA-34" target="qII1i5PBghsoT79Tx9uA-86">
          <mxGeometry relative="1" as="geometry" />
        </mxCell>
        <mxCell id="qII1i5PBghsoT79Tx9uA-88" style="edgeStyle=orthogonalEdgeStyle;rounded=0;orthogonalLoop=1;jettySize=auto;html=1;exitX=0.25;exitY=1;exitDx=0;exitDy=0;entryX=1;entryY=0;entryDx=0;entryDy=0;fontSize=20;fontColor=#66FF66;endArrow=none;endFill=0;strokeWidth=3;" edge="1" parent="1" source="qII1i5PBghsoT79Tx9uA-34" target="qII1i5PBghsoT79Tx9uA-82">
          <mxGeometry relative="1" as="geometry" />
        </mxCell>
        <mxCell id="qII1i5PBghsoT79Tx9uA-34" value="&lt;font style=&quot;font-size: 24px;&quot;&gt;Customer&lt;/font&gt;" style="whiteSpace=wrap;html=1;fillColor=#f8cecc;strokeColor=#b85450;rounded=0;strokeWidth=4;" vertex="1" parent="1">
          <mxGeometry x="1190" y="435" width="170" height="60" as="geometry" />
        </mxCell>
        <mxCell id="qII1i5PBghsoT79Tx9uA-36" value="&lt;b&gt;&lt;font style=&quot;font-size: 22px;&quot;&gt;Has&lt;/font&gt;&lt;/b&gt;" style="rhombus;whiteSpace=wrap;html=1;rounded=0;strokeWidth=4;fillColor=#dae8fc;strokeColor=#6c8ebf;" vertex="1" parent="1">
          <mxGeometry x="460" y="420" width="90" height="90" as="geometry" />
        </mxCell>
        <mxCell id="qII1i5PBghsoT79Tx9uA-111" value="" style="edgeStyle=orthogonalEdgeStyle;rounded=0;orthogonalLoop=1;jettySize=auto;html=1;fontSize=14;fontColor=#1A1A1A;endArrow=none;endFill=0;strokeWidth=3;" edge="1" parent="1" source="qII1i5PBghsoT79Tx9uA-38" target="qII1i5PBghsoT79Tx9uA-110">
          <mxGeometry relative="1" as="geometry" />
        </mxCell>
        <mxCell id="qII1i5PBghsoT79Tx9uA-128" value="" style="edgeStyle=orthogonalEdgeStyle;rounded=0;orthogonalLoop=1;jettySize=auto;html=1;fontSize=19;fontColor=#1A1A1A;endArrow=none;endFill=0;strokeWidth=5;" edge="1" parent="1" source="qII1i5PBghsoT79Tx9uA-38" target="qII1i5PBghsoT79Tx9uA-127">
          <mxGeometry relative="1" as="geometry" />
        </mxCell>
        <mxCell id="qII1i5PBghsoT79Tx9uA-130" value="" style="edgeStyle=orthogonalEdgeStyle;rounded=0;orthogonalLoop=1;jettySize=auto;html=1;fontSize=19;fontColor=#1A1A1A;endArrow=none;endFill=0;strokeWidth=5;" edge="1" parent="1" source="qII1i5PBghsoT79Tx9uA-38" target="qII1i5PBghsoT79Tx9uA-129">
          <mxGeometry relative="1" as="geometry" />
        </mxCell>
        <mxCell id="qII1i5PBghsoT79Tx9uA-158" value="" style="edgeStyle=none;rounded=0;orthogonalLoop=1;jettySize=auto;html=1;strokeWidth=3;fontSize=22;fontColor=default;endArrow=none;endFill=0;" edge="1" parent="1" source="qII1i5PBghsoT79Tx9uA-38" target="qII1i5PBghsoT79Tx9uA-36">
          <mxGeometry relative="1" as="geometry" />
        </mxCell>
        <mxCell id="qII1i5PBghsoT79Tx9uA-38" value="&lt;font style=&quot;font-size: 27px;&quot;&gt;&lt;b&gt;Seller&lt;/b&gt;&lt;/font&gt;" style="whiteSpace=wrap;html=1;fillColor=#dae8fc;strokeColor=#6c8ebf;rounded=0;strokeWidth=4;" vertex="1" parent="1">
          <mxGeometry x="170" y="435" width="180" height="60" as="geometry" />
        </mxCell>
        <mxCell id="qII1i5PBghsoT79Tx9uA-43" value="" style="edgeStyle=orthogonalEdgeStyle;rounded=0;orthogonalLoop=1;jettySize=auto;html=1;fontSize=24;fontColor=#66FF66;endArrow=none;endFill=0;" edge="1" parent="1" source="qII1i5PBghsoT79Tx9uA-40" target="qII1i5PBghsoT79Tx9uA-42">
          <mxGeometry relative="1" as="geometry" />
        </mxCell>
        <mxCell id="qII1i5PBghsoT79Tx9uA-40" value="&lt;font size=&quot;1&quot; style=&quot;&quot;&gt;&lt;b style=&quot;font-size: 18px;&quot;&gt;pay&lt;/b&gt;&lt;/font&gt;" style="rhombus;whiteSpace=wrap;html=1;fillColor=#bac8d3;rounded=0;strokeWidth=4;strokeColor=#23445d;" vertex="1" parent="1">
          <mxGeometry x="1235" y="285" width="80" height="80" as="geometry" />
        </mxCell>
        <mxCell id="qII1i5PBghsoT79Tx9uA-45" value="" style="edgeStyle=orthogonalEdgeStyle;rounded=0;orthogonalLoop=1;jettySize=auto;html=1;fontSize=18;fontColor=#66FF66;endArrow=none;endFill=0;strokeWidth=4;" edge="1" parent="1" source="qII1i5PBghsoT79Tx9uA-42" target="qII1i5PBghsoT79Tx9uA-44">
          <mxGeometry relative="1" as="geometry" />
        </mxCell>
        <mxCell id="qII1i5PBghsoT79Tx9uA-49" value="" style="edgeStyle=orthogonalEdgeStyle;rounded=0;orthogonalLoop=1;jettySize=auto;html=1;fontSize=18;fontColor=#66FF66;endArrow=none;endFill=0;strokeWidth=4;" edge="1" parent="1" source="qII1i5PBghsoT79Tx9uA-42" target="qII1i5PBghsoT79Tx9uA-48">
          <mxGeometry relative="1" as="geometry" />
        </mxCell>
        <mxCell id="qII1i5PBghsoT79Tx9uA-114" style="edgeStyle=orthogonalEdgeStyle;rounded=0;orthogonalLoop=1;jettySize=auto;html=1;exitX=0.75;exitY=0;exitDx=0;exitDy=0;fontSize=14;fontColor=#1A1A1A;strokeWidth=4;" edge="1" parent="1" source="qII1i5PBghsoT79Tx9uA-42">
          <mxGeometry relative="1" as="geometry">
            <mxPoint x="1430" y="120" as="targetPoint" />
          </mxGeometry>
        </mxCell>
        <mxCell id="qII1i5PBghsoT79Tx9uA-125" value="" style="edgeStyle=orthogonalEdgeStyle;rounded=0;orthogonalLoop=1;jettySize=auto;html=1;fontSize=21;fontColor=#1A1A1A;endArrow=none;endFill=0;strokeWidth=4;" edge="1" parent="1" source="qII1i5PBghsoT79Tx9uA-42" target="qII1i5PBghsoT79Tx9uA-124">
          <mxGeometry relative="1" as="geometry" />
        </mxCell>
        <mxCell id="qII1i5PBghsoT79Tx9uA-42" value="&lt;font style=&quot;font-size: 18px;&quot;&gt;&lt;b&gt;Payment Method&lt;/b&gt;&lt;/font&gt;" style="whiteSpace=wrap;html=1;fillColor=#bac8d3;strokeColor=#23445d;rounded=0;strokeWidth=4;" vertex="1" parent="1">
          <mxGeometry x="1195" y="140" width="160" height="60" as="geometry" />
        </mxCell>
        <mxCell id="qII1i5PBghsoT79Tx9uA-44" value="Bkash" style="ellipse;whiteSpace=wrap;html=1;fillColor=#bac8d3;strokeColor=#23445d;rounded=0;strokeWidth=4;fontSize=18;fontStyle=1" vertex="1" parent="1">
          <mxGeometry x="1215" width="120" height="60" as="geometry" />
        </mxCell>
        <mxCell id="qII1i5PBghsoT79Tx9uA-48" value="&lt;font style=&quot;font-size: 17px;&quot;&gt;&lt;span&gt;COD&lt;/span&gt;&lt;/font&gt;" style="ellipse;whiteSpace=wrap;html=1;fillColor=#bac8d3;strokeColor=#23445d;rounded=0;strokeWidth=4;fontStyle=1" vertex="1" parent="1">
          <mxGeometry x="1370" y="250" width="120" height="60" as="geometry" />
        </mxCell>
        <mxCell id="qII1i5PBghsoT79Tx9uA-50" value="Valid date" style="ellipse;whiteSpace=wrap;html=1;fontSize=19;fillColor=#bac8d3;strokeColor=#23445d;rounded=0;strokeWidth=4;fontStyle=1;" vertex="1" parent="1">
          <mxGeometry x="1570" y="100" width="120" height="60" as="geometry" />
        </mxCell>
        <mxCell id="qII1i5PBghsoT79Tx9uA-52" value="Card number" style="ellipse;whiteSpace=wrap;html=1;fontSize=19;fillColor=#bac8d3;strokeColor=#23445d;rounded=0;strokeWidth=4;fontStyle=1;" vertex="1" parent="1">
          <mxGeometry x="1370" y="-40" width="120" height="60" as="geometry" />
        </mxCell>
        <mxCell id="qII1i5PBghsoT79Tx9uA-82" value="C_name" style="ellipse;whiteSpace=wrap;html=1;fillColor=#f8cecc;strokeColor=#b85450;rounded=0;strokeWidth=4;fontSize=21;fontColor=#1A1A1A;" vertex="1" parent="1">
          <mxGeometry x="1050" y="570" width="130" height="60" as="geometry" />
        </mxCell>
        <mxCell id="qII1i5PBghsoT79Tx9uA-84" value="" style="ellipse;whiteSpace=wrap;html=1;fillColor=#f8cecc;strokeColor=#b85450;rounded=0;strokeWidth=4;" vertex="1" parent="1">
          <mxGeometry x="1465" y="410" width="145" height="85" as="geometry" />
        </mxCell>
        <mxCell id="qII1i5PBghsoT79Tx9uA-86" value="&lt;u style=&quot;font-size: 19px;&quot;&gt;C_ID&lt;/u&gt;" style="ellipse;whiteSpace=wrap;html=1;fillColor=#f8cecc;strokeColor=#b85450;rounded=0;strokeWidth=4;fontStyle=1;fontSize=19;" vertex="1" parent="1">
          <mxGeometry x="1290" y="570" width="120" height="60" as="geometry" />
        </mxCell>
        <mxCell id="qII1i5PBghsoT79Tx9uA-91" value="&lt;font style=&quot;font-size: 16px;&quot;&gt;Contact Number&lt;/font&gt;" style="ellipse;whiteSpace=wrap;html=1;fillColor=#f8cecc;strokeColor=#b85450;rounded=0;strokeWidth=4;fontStyle=1;fontSize=16;" vertex="1" parent="1">
          <mxGeometry x="1477.5" y="420" width="120" height="60" as="geometry" />
        </mxCell>
        <mxCell id="qII1i5PBghsoT79Tx9uA-93" value="F_ID" style="ellipse;whiteSpace=wrap;html=1;fillColor=#fff2cc;strokeColor=#d6b656;rounded=0;strokeWidth=4;fontStyle=5;fontSize=19;" vertex="1" parent="1">
          <mxGeometry x="700" y="295" width="120" height="75" as="geometry" />
        </mxCell>
        <mxCell id="qII1i5PBghsoT79Tx9uA-96" value="&lt;b style=&quot;font-size: 19px;&quot;&gt;F_name&lt;/b&gt;" style="ellipse;whiteSpace=wrap;html=1;fillColor=#fff2cc;strokeColor=#d6b656;rounded=0;strokeWidth=4;fontSize=19;" vertex="1" parent="1">
          <mxGeometry x="826" y="540" width="120" height="60" as="geometry" />
        </mxCell>
        <mxCell id="qII1i5PBghsoT79Tx9uA-97" value="&lt;font style=&quot;font-size: 21px;&quot;&gt;&lt;b&gt;Price&lt;/b&gt;&lt;/font&gt;" style="ellipse;whiteSpace=wrap;html=1;fillColor=#fff2cc;strokeColor=#d6b656;rounded=0;strokeWidth=4;" vertex="1" parent="1">
          <mxGeometry x="600" y="550" width="120" height="60" as="geometry" />
        </mxCell>
        <mxCell id="qII1i5PBghsoT79Tx9uA-99" value="" style="edgeStyle=orthogonalEdgeStyle;rounded=0;orthogonalLoop=1;jettySize=auto;html=1;fontSize=18;fontColor=#66FF66;fillColor=#fad7ac;strokeColor=#b46504;endArrow=none;endFill=0;strokeWidth=5;" edge="1" parent="1" source="qII1i5PBghsoT79Tx9uA-102" target="qII1i5PBghsoT79Tx9uA-103">
          <mxGeometry relative="1" as="geometry" />
        </mxCell>
        <mxCell id="qII1i5PBghsoT79Tx9uA-100" value="" style="edgeStyle=orthogonalEdgeStyle;rounded=0;orthogonalLoop=1;jettySize=auto;html=1;fontSize=18;fontColor=#66FF66;fillColor=#fad7ac;strokeColor=#b46504;strokeWidth=5;endArrow=none;endFill=0;" edge="1" parent="1" source="qII1i5PBghsoT79Tx9uA-102" target="qII1i5PBghsoT79Tx9uA-106">
          <mxGeometry relative="1" as="geometry" />
        </mxCell>
        <mxCell id="qII1i5PBghsoT79Tx9uA-112" value="" style="edgeStyle=orthogonalEdgeStyle;rounded=0;orthogonalLoop=1;jettySize=auto;html=1;fontSize=14;fontColor=#1A1A1A;fillColor=#fad7ac;strokeColor=#b46504;endArrow=none;endFill=0;strokeWidth=3;" edge="1" parent="1" source="qII1i5PBghsoT79Tx9uA-102" target="qII1i5PBghsoT79Tx9uA-110">
          <mxGeometry relative="1" as="geometry" />
        </mxCell>
        <mxCell id="qII1i5PBghsoT79Tx9uA-120" value="" style="edgeStyle=orthogonalEdgeStyle;rounded=0;orthogonalLoop=1;jettySize=auto;html=1;fontSize=14;fontColor=#1A1A1A;fillColor=#fad7ac;strokeColor=#b46504;endArrow=none;endFill=0;strokeWidth=5;" edge="1" parent="1" source="qII1i5PBghsoT79Tx9uA-102" target="qII1i5PBghsoT79Tx9uA-119">
          <mxGeometry relative="1" as="geometry" />
        </mxCell>
        <mxCell id="qII1i5PBghsoT79Tx9uA-102" value="&lt;font style=&quot;font-size: 18px;&quot;&gt;&lt;b&gt;Receive Method&lt;/b&gt;&lt;/font&gt;" style="whiteSpace=wrap;html=1;fillColor=#fad7ac;strokeColor=#b46504;rounded=0;strokeWidth=4;" vertex="1" parent="1">
          <mxGeometry x="180" y="160" width="160" height="60" as="geometry" />
        </mxCell>
        <mxCell id="qII1i5PBghsoT79Tx9uA-103" value="Bkash" style="ellipse;whiteSpace=wrap;html=1;fillColor=#fad7ac;strokeColor=#b46504;rounded=0;strokeWidth=4;fontSize=18;fontStyle=1" vertex="1" parent="1">
          <mxGeometry x="200" y="-15" width="120" height="60" as="geometry" />
        </mxCell>
        <mxCell id="qII1i5PBghsoT79Tx9uA-104" value="" style="edgeStyle=orthogonalEdgeStyle;rounded=0;orthogonalLoop=1;jettySize=auto;html=1;fontSize=18;fontColor=#66FF66;fillColor=#fad7ac;strokeColor=#b46504;endArrow=none;endFill=0;strokeWidth=5;" edge="1" parent="1" source="qII1i5PBghsoT79Tx9uA-106" target="qII1i5PBghsoT79Tx9uA-108">
          <mxGeometry relative="1" as="geometry" />
        </mxCell>
        <mxCell id="qII1i5PBghsoT79Tx9uA-105" value="" style="edgeStyle=orthogonalEdgeStyle;rounded=0;orthogonalLoop=1;jettySize=auto;html=1;fontSize=18;fontColor=#66FF66;fillColor=#fad7ac;strokeColor=#b46504;endArrow=none;endFill=0;strokeWidth=5;" edge="1" parent="1" source="qII1i5PBghsoT79Tx9uA-106" target="qII1i5PBghsoT79Tx9uA-109">
          <mxGeometry relative="1" as="geometry" />
        </mxCell>
        <mxCell id="qII1i5PBghsoT79Tx9uA-106" value="CARD" style="ellipse;whiteSpace=wrap;html=1;fillColor=#fad7ac;strokeColor=#b46504;rounded=0;strokeWidth=4;fontSize=19;fontStyle=1" vertex="1" parent="1">
          <mxGeometry x="-45" y="160" width="120" height="60" as="geometry" />
        </mxCell>
        <mxCell id="qII1i5PBghsoT79Tx9uA-107" value="&lt;font style=&quot;font-size: 17px;&quot;&gt;&lt;span&gt;Amount&lt;/span&gt;&lt;/font&gt;" style="ellipse;whiteSpace=wrap;html=1;fillColor=#fad7ac;strokeColor=#b46504;rounded=0;strokeWidth=4;fontStyle=1" vertex="1" parent="1">
          <mxGeometry x="445" y="30" width="120" height="60" as="geometry" />
        </mxCell>
        <mxCell id="qII1i5PBghsoT79Tx9uA-108" value="Valid date" style="ellipse;whiteSpace=wrap;html=1;fontSize=19;fillColor=#fad7ac;strokeColor=#b46504;rounded=0;strokeWidth=4;fontStyle=1;" vertex="1" parent="1">
          <mxGeometry x="-45" y="-15" width="120" height="60" as="geometry" />
        </mxCell>
        <mxCell id="qII1i5PBghsoT79Tx9uA-109" value="Card number" style="ellipse;whiteSpace=wrap;html=1;fontSize=19;fillColor=#fad7ac;strokeColor=#b46504;rounded=0;strokeWidth=4;fontStyle=1;" vertex="1" parent="1">
          <mxGeometry x="-245" y="125" width="120" height="60" as="geometry" />
        </mxCell>
        <mxCell id="qII1i5PBghsoT79Tx9uA-110" value="&lt;span style=&quot;font-size: 18px;&quot;&gt;&lt;b&gt;Receive&lt;/b&gt;&lt;/span&gt;" style="rhombus;whiteSpace=wrap;html=1;fillColor=#fad7ac;rounded=0;strokeWidth=4;strokeColor=#b46504;" vertex="1" parent="1">
          <mxGeometry x="210" y="275" width="100" height="90" as="geometry" />
        </mxCell>
        <mxCell id="qII1i5PBghsoT79Tx9uA-139" style="edgeStyle=orthogonalEdgeStyle;rounded=0;orthogonalLoop=1;jettySize=auto;html=1;fontSize=22;fontColor=default;endArrow=none;endFill=0;strokeWidth=4;" edge="1" parent="1" source="qII1i5PBghsoT79Tx9uA-115">
          <mxGeometry relative="1" as="geometry">
            <mxPoint x="1430" y="20" as="targetPoint" />
          </mxGeometry>
        </mxCell>
        <mxCell id="qII1i5PBghsoT79Tx9uA-140" value="" style="edgeStyle=orthogonalEdgeStyle;rounded=0;orthogonalLoop=1;jettySize=auto;html=1;fontSize=22;fontColor=default;endArrow=none;endFill=0;strokeWidth=4;" edge="1" parent="1" source="qII1i5PBghsoT79Tx9uA-115" target="qII1i5PBghsoT79Tx9uA-50">
          <mxGeometry relative="1" as="geometry" />
        </mxCell>
        <mxCell id="qII1i5PBghsoT79Tx9uA-115" value="CARD" style="ellipse;whiteSpace=wrap;html=1;fillColor=#bac8d3;strokeColor=#23445d;rounded=0;strokeWidth=4;fontSize=19;fontStyle=1;labelBackgroundColor=none;fontColor=#1A1A1A;" vertex="1" parent="1">
          <mxGeometry x="1370" y="100" width="120" height="60" as="geometry" />
        </mxCell>
        <mxCell id="qII1i5PBghsoT79Tx9uA-119" value="&lt;font size=&quot;1&quot; style=&quot;&quot;&gt;&lt;b style=&quot;font-size: 19px;&quot;&gt;Trans_ID&lt;/b&gt;&lt;/font&gt;" style="ellipse;whiteSpace=wrap;html=1;fillColor=#fad7ac;strokeColor=#b46504;rounded=0;strokeWidth=4;fontStyle=4" vertex="1" parent="1">
          <mxGeometry x="490" y="160" width="120" height="60" as="geometry" />
        </mxCell>
        <mxCell id="qII1i5PBghsoT79Tx9uA-122" value="" style="endArrow=none;html=1;rounded=0;fontSize=19;fontColor=#1A1A1A;exitX=0.5;exitY=1;exitDx=0;exitDy=0;endFill=0;strokeWidth=3;" edge="1" parent="1" source="qII1i5PBghsoT79Tx9uA-31" target="qII1i5PBghsoT79Tx9uA-96">
          <mxGeometry width="50" height="50" relative="1" as="geometry">
            <mxPoint x="790" y="350" as="sourcePoint" />
            <mxPoint x="840" y="300" as="targetPoint" />
          </mxGeometry>
        </mxCell>
        <mxCell id="qII1i5PBghsoT79Tx9uA-123" value="" style="endArrow=none;html=1;rounded=0;fontSize=19;fontColor=#1A1A1A;endFill=0;strokeWidth=3;" edge="1" parent="1" source="qII1i5PBghsoT79Tx9uA-31" target="qII1i5PBghsoT79Tx9uA-97">
          <mxGeometry width="50" height="50" relative="1" as="geometry">
            <mxPoint x="790" y="350" as="sourcePoint" />
            <mxPoint x="840" y="300" as="targetPoint" />
          </mxGeometry>
        </mxCell>
        <mxCell id="qII1i5PBghsoT79Tx9uA-124" value="Amount" style="ellipse;whiteSpace=wrap;html=1;fillColor=#bac8d3;strokeColor=#23445d;rounded=0;strokeWidth=4;fontSize=19;fontStyle=1" vertex="1" parent="1">
          <mxGeometry x="960" y="140" width="120" height="60" as="geometry" />
        </mxCell>
        <mxCell id="qII1i5PBghsoT79Tx9uA-126" value="" style="endArrow=none;html=1;rounded=0;fontSize=4;fontColor=#1A1A1A;exitX=1;exitY=0;exitDx=0;exitDy=0;fillColor=#fad7ac;strokeColor=#b46504;endFill=0;strokeWidth=5;" edge="1" parent="1" source="qII1i5PBghsoT79Tx9uA-102">
          <mxGeometry width="50" height="50" relative="1" as="geometry">
            <mxPoint x="520" y="230" as="sourcePoint" />
            <mxPoint x="480" y="90" as="targetPoint" />
          </mxGeometry>
        </mxCell>
        <mxCell id="qII1i5PBghsoT79Tx9uA-127" value="S_ID" style="ellipse;whiteSpace=wrap;html=1;fillColor=#dae8fc;strokeColor=#6c8ebf;rounded=0;strokeWidth=4;fontStyle=5;fontSize=18;" vertex="1" parent="1">
          <mxGeometry x="-60" y="435" width="120" height="60" as="geometry" />
        </mxCell>
        <mxCell id="qII1i5PBghsoT79Tx9uA-129" value="S_Name" style="ellipse;whiteSpace=wrap;html=1;fillColor=#dae8fc;strokeColor=#6c8ebf;rounded=0;strokeWidth=4;fontStyle=1;fontSize=18;" vertex="1" parent="1">
          <mxGeometry x="200" y="575" width="120" height="60" as="geometry" />
        </mxCell>
        <mxCell id="qII1i5PBghsoT79Tx9uA-135" value="" style="endArrow=none;html=1;rounded=0;fontSize=22;fontColor=#1A1A1A;entryX=0.975;entryY=0.188;entryDx=0;entryDy=0;entryPerimeter=0;endFill=0;strokeWidth=5;" edge="1" parent="1" source="qII1i5PBghsoT79Tx9uA-38">
          <mxGeometry width="50" height="50" relative="1" as="geometry">
            <mxPoint x="740" y="470" as="sourcePoint" />
            <mxPoint x="97" y="533.2800000000002" as="targetPoint" />
          </mxGeometry>
        </mxCell>
        <mxCell id="qII1i5PBghsoT79Tx9uA-136" value="Trans_ID" style="ellipse;whiteSpace=wrap;html=1;fillColor=#bac8d3;strokeColor=#23445d;rounded=0;strokeWidth=4;fontSize=19;fontStyle=5" vertex="1" parent="1">
          <mxGeometry x="980" y="235" width="120" height="60" as="geometry" />
        </mxCell>
        <mxCell id="qII1i5PBghsoT79Tx9uA-137" value="" style="endArrow=none;html=1;rounded=0;fontSize=22;fontColor=default;entryX=1;entryY=0;entryDx=0;entryDy=0;exitX=0;exitY=1;exitDx=0;exitDy=0;endFill=0;strokeWidth=4;" edge="1" parent="1" source="qII1i5PBghsoT79Tx9uA-42" target="qII1i5PBghsoT79Tx9uA-136">
          <mxGeometry width="50" height="50" relative="1" as="geometry">
            <mxPoint x="810" y="330" as="sourcePoint" />
            <mxPoint x="860" y="280" as="targetPoint" />
          </mxGeometry>
        </mxCell>
        <mxCell id="qII1i5PBghsoT79Tx9uA-145" value="" style="endArrow=ERmany;html=1;rounded=0;fontSize=22;fontColor=default;exitX=1;exitY=0.5;exitDx=0;exitDy=0;entryX=0;entryY=0.5;entryDx=0;entryDy=0;strokeWidth=3;endFill=0;endSize=24;" edge="1" parent="1" source="qII1i5PBghsoT79Tx9uA-36" target="qII1i5PBghsoT79Tx9uA-31">
          <mxGeometry width="50" height="50" relative="1" as="geometry">
            <mxPoint x="560" y="450" as="sourcePoint" />
            <mxPoint x="670" y="400" as="targetPoint" />
          </mxGeometry>
        </mxCell>
        <mxCell id="qII1i5PBghsoT79Tx9uA-148" value="" style="endArrow=ERmany;html=1;rounded=0;fontSize=22;fontColor=default;entryX=1;entryY=0.5;entryDx=0;entryDy=0;exitX=0;exitY=0.5;exitDx=0;exitDy=0;strokeWidth=3;endFill=0;endSize=21;" edge="1" parent="1" source="qII1i5PBghsoT79Tx9uA-36" target="qII1i5PBghsoT79Tx9uA-38">
          <mxGeometry width="50" height="50" relative="1" as="geometry">
            <mxPoint x="680" y="160" as="sourcePoint" />
            <mxPoint x="630" y="210" as="targetPoint" />
          </mxGeometry>
        </mxCell>
        <mxCell id="qII1i5PBghsoT79Tx9uA-159" value="" style="ellipse;whiteSpace=wrap;html=1;fillColor=#dae8fc;strokeColor=#6c8ebf;rounded=0;strokeWidth=4;fontSize=17;fontStyle=1" vertex="1" parent="1">
          <mxGeometry x="-80" y="505" width="180" height="80" as="geometry" />
        </mxCell>
        <mxCell id="qII1i5PBghsoT79Tx9uA-149" value="" style="endArrow=none;html=1;rounded=0;fontSize=22;fontColor=default;entryX=0.5;entryY=0;entryDx=0;entryDy=0;exitX=0.5;exitY=1;exitDx=0;exitDy=0;strokeWidth=3;" edge="1" parent="1" source="qII1i5PBghsoT79Tx9uA-93" target="qII1i5PBghsoT79Tx9uA-31">
          <mxGeometry width="50" height="50" relative="1" as="geometry">
            <mxPoint x="630" y="210" as="sourcePoint" />
            <mxPoint x="680" y="160" as="targetPoint" />
          </mxGeometry>
        </mxCell>
        <mxCell id="qII1i5PBghsoT79Tx9uA-160" value="Contact Number" style="ellipse;whiteSpace=wrap;html=1;fillColor=#dae8fc;strokeColor=#6c8ebf;rounded=0;strokeWidth=4;fontSize=17;fontStyle=1" vertex="1" parent="1">
          <mxGeometry x="-70" y="515" width="160" height="60" as="geometry" />
        </mxCell>
        <mxCell id="qII1i5PBghsoT79Tx9uA-161" value="S_ID" style="ellipse;whiteSpace=wrap;html=1;fillColor=#fad7ac;strokeColor=#b46504;rounded=0;strokeWidth=4;fontSize=18;fontStyle=1" vertex="1" parent="1">
          <mxGeometry x="413" y="270" width="120" height="60" as="geometry" />
        </mxCell>
        <mxCell id="qII1i5PBghsoT79Tx9uA-162" value="" style="endArrow=none;html=1;rounded=0;strokeWidth=3;fontSize=22;fontColor=default;endSize=24;entryX=0.907;entryY=1.042;entryDx=0;entryDy=0;entryPerimeter=0;exitX=0;exitY=0.5;exitDx=0;exitDy=0;" edge="1" parent="1" source="qII1i5PBghsoT79Tx9uA-161" target="qII1i5PBghsoT79Tx9uA-102">
          <mxGeometry width="50" height="50" relative="1" as="geometry">
            <mxPoint x="640" y="260" as="sourcePoint" />
            <mxPoint x="690" y="210" as="targetPoint" />
          </mxGeometry>
        </mxCell>
        <mxCell id="qII1i5PBghsoT79Tx9uA-163" value="C_ID" style="ellipse;whiteSpace=wrap;html=1;fillColor=#bac8d3;strokeColor=#23445d;rounded=0;strokeWidth=4;fontSize=18;fontStyle=1" vertex="1" parent="1">
          <mxGeometry x="1033" y="20" width="120" height="60" as="geometry" />
        </mxCell>
        <mxCell id="qII1i5PBghsoT79Tx9uA-164" value="" style="endArrow=none;html=1;rounded=0;strokeWidth=3;fontSize=22;fontColor=default;endSize=24;entryX=0.781;entryY=0.94;entryDx=0;entryDy=0;entryPerimeter=0;" edge="1" parent="1" source="qII1i5PBghsoT79Tx9uA-42" target="qII1i5PBghsoT79Tx9uA-163">
          <mxGeometry width="50" height="50" relative="1" as="geometry">
            <mxPoint x="640" y="260" as="sourcePoint" />
            <mxPoint x="690" y="210" as="targetPoint" />
          </mxGeometry>
        </mxCell>
      </root>
    </mxGraphModel>
  </diagram>
</mxfile>
